<svg width="20" height="20" viewBox="0 0 20 20" fill="none" xmlns="http://www.w3.org/2000/svg">
<g clip-path="url(#clip0_611_362)">
<path d="M16.9307 3.64169C15.6341 3.04655 14.2658 2.62218 12.8599 2.37919C12.8471 2.37669 12.8338 2.37833 12.822 2.38387C12.8101 2.38941 12.8004 2.39857 12.7941 2.41002C12.6191 2.72252 12.4241 3.13002 12.2874 3.45169C10.7719 3.22151 9.23039 3.22151 7.71491 3.45169C7.56282 3.09527 7.39117 2.74752 7.20075 2.41002C7.19418 2.39883 7.18437 2.38989 7.17262 2.38438C7.16086 2.37888 7.14772 2.37707 7.13491 2.37919C5.72895 2.62167 4.36052 3.04607 3.06408 3.64169C3.0531 3.64629 3.0438 3.65414 3.03741 3.66419C0.444079 7.53836 -0.266754 11.3167 0.0824122 15.0475C0.0832604 15.0568 0.085989 15.0658 0.0904309 15.0739C0.0948728 15.0821 0.100935 15.0893 0.108246 15.095C1.61791 16.2135 3.30667 17.0674 5.10241 17.62C5.11507 17.6237 5.12854 17.6234 5.14104 17.6193C5.15355 17.6151 5.16449 17.6072 5.17241 17.5967C5.55741 17.0717 5.90075 16.5175 6.19408 15.935C6.19818 15.9271 6.20054 15.9183 6.20102 15.9094C6.20149 15.9005 6.20007 15.8915 6.19684 15.8832C6.19361 15.8748 6.18865 15.8673 6.18229 15.861C6.17592 15.8547 6.1683 15.8498 6.15991 15.8467C5.6211 15.6405 5.09947 15.3919 4.59991 15.1034C4.59075 15.0981 4.58305 15.0906 4.57748 15.0816C4.57191 15.0726 4.56865 15.0624 4.56799 15.0518C4.56733 15.0413 4.56929 15.0307 4.5737 15.0211C4.5781 15.0115 4.58482 15.0031 4.59325 14.9967C4.69845 14.918 4.80181 14.8369 4.90325 14.7534C4.91212 14.7462 4.92282 14.7416 4.93415 14.7401C4.94548 14.7386 4.95699 14.7403 4.96741 14.745C8.24075 16.2392 11.7841 16.2392 15.0191 14.745C15.0296 14.7402 15.0413 14.7384 15.0528 14.7398C15.0643 14.7413 15.0751 14.746 15.0841 14.7534C15.1841 14.835 15.2891 14.9184 15.3949 14.9967C15.4032 15.003 15.4099 15.0112 15.4143 15.0207C15.4188 15.0301 15.4208 15.0405 15.4203 15.0509C15.4198 15.0614 15.4168 15.0715 15.4115 15.0805C15.4062 15.0895 15.3988 15.097 15.3899 15.1025C14.8915 15.3938 14.3694 15.6425 13.8291 15.8459C13.8207 15.8491 13.813 15.854 13.8067 15.8604C13.8003 15.8668 13.7953 15.8744 13.7921 15.8828C13.7889 15.8912 13.7875 15.9002 13.788 15.9092C13.7884 15.9182 13.7908 15.927 13.7949 15.935C14.0949 16.5167 14.4382 17.07 14.8157 17.5959C14.8235 17.6066 14.8344 17.6146 14.847 17.6188C14.8596 17.623 14.8731 17.6231 14.8857 17.6192C16.6845 17.0682 18.376 16.2143 19.8874 15.0942C19.8948 15.089 19.9009 15.0823 19.9055 15.0745C19.9101 15.0668 19.913 15.0581 19.9141 15.0492C20.3307 10.735 19.2157 6.98752 16.9566 3.66586C16.9513 3.65465 16.9421 3.64576 16.9307 3.64086V3.64169ZM6.68325 12.775C5.69741 12.775 4.88575 11.8709 4.88575 10.7592C4.88575 9.64836 5.68241 8.74336 6.68325 8.74336C7.69158 8.74336 8.49658 9.65669 8.48075 10.76C8.48075 11.8709 7.68408 12.775 6.68325 12.775V12.775ZM13.3291 12.775C12.3432 12.775 11.5316 11.8709 11.5316 10.7592C11.5316 9.64836 12.3274 8.74336 13.3291 8.74336C14.3374 8.74336 15.1424 9.65669 15.1266 10.76C15.1266 11.8709 14.3382 12.775 13.3291 12.775V12.775Z" fill="#F6F6F6"/>
</g>
<defs>
<clipPath id="clip0_611_362">
<rect width="20" height="20" fill="white"/>
</clipPath>
</defs>
</svg>
