<svg width="24" height="24" viewBox="0 0 17 16" fill="none" xmlns="http://www.w3.org/2000/svg">
<g clip-path="url(#clip0_460_87)">
<path d="M8.33325 0.197998C3.91325 0.197998 0.333252 3.78 0.333252 8.198C0.333252 11.7333 2.62525 14.7313 5.80325 15.788C6.20325 15.8633 6.34992 15.616 6.34992 15.4033C6.34992 15.2133 6.34325 14.71 6.33992 14.0433C4.11459 14.526 3.64525 12.97 3.64525 12.97C3.28125 12.0467 2.75525 11.8 2.75525 11.8C2.03059 11.304 2.81125 11.314 2.81125 11.314C3.61459 11.37 4.03659 12.138 4.03659 12.138C4.74992 13.3613 5.90925 13.008 6.36659 12.8033C6.43859 12.286 6.64459 11.9333 6.87325 11.7333C5.09659 11.5333 3.22925 10.8453 3.22925 7.78C3.22925 6.90666 3.53925 6.19333 4.05259 5.63333C3.96259 5.43133 3.69259 4.618 4.12259 3.516C4.12259 3.516 4.79259 3.30133 6.32259 4.336C6.96259 4.158 7.64259 4.07 8.32259 4.066C9.00259 4.07 9.68259 4.158 10.3226 4.336C11.8426 3.30133 12.5126 3.516 12.5126 3.516C12.9426 4.618 12.6726 5.43133 12.5926 5.63333C13.1026 6.19333 13.4126 6.90666 13.4126 7.78C13.4126 10.8533 11.5426 11.53 9.76259 11.7267C10.0426 11.9667 10.3026 12.4573 10.3026 13.2067C10.3026 14.2773 10.2926 15.1373 10.2926 15.3973C10.2926 15.6073 10.4326 15.8573 10.8426 15.7773C14.0433 14.728 16.3333 11.728 16.3333 8.198C16.3333 3.78 12.7513 0.197998 8.33325 0.197998Z" fill="#F6F6F6"/>
</g>
<defs>
<clipPath id="clip0_460_87">
<rect width="16" height="16" fill="white" transform="translate(0.333252)"/>
</clipPath>
</defs>
</svg>
