<svg width="20" height="20" viewBox="0 0 20 20" fill="none" xmlns="http://www.w3.org/2000/svg">
<path d="M16.6667 15H15.0001V7.70831L10.0001 10.8333L5.00008 7.70831V15H3.33341V4.99998H4.33341L10.0001 8.54165L15.6667 4.99998H16.6667V15ZM16.6667 3.33331H3.33341C2.40841 3.33331 1.66675 4.07498 1.66675 4.99998V15C1.66675 15.442 1.84234 15.8659 2.1549 16.1785C2.46746 16.4911 2.89139 16.6666 3.33341 16.6666H16.6667C17.1088 16.6666 17.5327 16.4911 17.8453 16.1785C18.1578 15.8659 18.3334 15.442 18.3334 15V4.99998C18.3334 4.55795 18.1578 4.13403 17.8453 3.82147C17.5327 3.50891 17.1088 3.33331 16.6667 3.33331V3.33331Z" fill="#F6F6F6"/>
</svg>
