<svg width="20" height="20" viewBox="0 0 20 20" fill="none" xmlns="http://www.w3.org/2000/svg">
<path d="M5 3C5 4.062 4.29 4.976 2.999 4.976C1.784 4.976 1 4.114 1 3.052C1 1.962 1.76 1 3 1C4.24 1 4.976 1.91 5 3ZM1 19V6H5V19H1Z" fill="#F6F6F6"/>
<path d="M6.99995 10.4443C6.99995 8.89931 6.94895 7.60831 6.89795 6.49331H10.4919L10.6699 8.21631H10.746C11.252 7.40531 12.4919 6.21631 14.568 6.21631C17.1 6.21631 19 7.91131 19 11.5583V19.0003H15V12.1393C15 10.5453 14.393 9.32931 13 9.32931C11.938 9.32931 11.4059 10.1893 11.1269 10.8983C11.0249 11.1523 10.9999 11.5063 10.9999 11.8613V19.0003H6.99995V10.4443Z" fill="#F6F6F6"/>
</svg>
